<?xml version="1.0" encoding="UTF-8" standalone="no"?>
<!-- Created with Inkscape (http://www.inkscape.org/) -->

<svg
   xmlns:dc="http://purl.org/dc/elements/1.1/"
   xmlns:cc="http://creativecommons.org/ns#"
   xmlns:rdf="http://www.w3.org/1999/02/22-rdf-syntax-ns#"
   xmlns:svg="http://www.w3.org/2000/svg"
   xmlns="http://www.w3.org/2000/svg"
   xmlns:sodipodi="http://sodipodi.sourceforge.net/DTD/sodipodi-0.dtd"
   xmlns:inkscape="http://www.inkscape.org/namespaces/inkscape"
   width="210mm"
   height="297mm"
   viewBox="0 0 744.09448819 1052.3622047"
   id="svg2"
   version="1.1"
   inkscape:version="0.91 r13725"
   sodipodi:docname="player_bird.svg">
  <defs
     id="defs4" />
  <sodipodi:namedview
     id="base"
     pagecolor="#ffffff"
     bordercolor="#666666"
     borderopacity="1.0"
     inkscape:pageopacity="0.0"
     inkscape:pageshadow="2"
     inkscape:zoom="0.49497475"
     inkscape:cx="691.8369"
     inkscape:cy="549.3053"
     inkscape:document-units="px"
     inkscape:current-layer="layer1"
     showgrid="false"
     inkscape:window-width="1920"
     inkscape:window-height="1028"
     inkscape:window-x="-8"
     inkscape:window-y="-8"
     inkscape:window-maximized="1" />
  <metadata
     id="metadata7">
    <rdf:RDF>
      <cc:Work
         rdf:about="">
        <dc:format>image/svg+xml</dc:format>
        <dc:type
           rdf:resource="http://purl.org/dc/dcmitype/StillImage" />
        <dc:title></dc:title>
      </cc:Work>
    </rdf:RDF>
  </metadata>
  <g
     inkscape:label="Layer 1"
     inkscape:groupmode="layer"
     id="layer1">
    <g
       id="g4183"
       inkscape:export-xdpi="18.709055"
       inkscape:export-ydpi="18.709055"
       inkscape:export-filename="E:\My Documents\GitHub\ArenaNet_MobileSoftwareEngineerTest_Q1\ArenaNet_MobileSoftwareEngineerTest_Q1\Assets\Sprites\player_bird.png">
      <path
         sodipodi:nodetypes="sssss"
         inkscape:connector-curvature="0"
         id="path4136"
         d="m 565.02151,358.31663 c 10e-6,92.47227 -100.05351,193.48143 -223.47579,193.48143 -123.42227,0 -197.13867,-60.93904 -197.13866,-153.41131 0,-92.47226 73.71639,-181.46038 197.13866,-181.46038 123.42227,0 223.47579,48.918 223.47579,141.39026 z"
         style="opacity:1;fill:#1ce3e3;fill-opacity:1;fill-rule:nonzero;stroke:#000000;stroke-width:19.41401863;stroke-linecap:butt;stroke-linejoin:miter;stroke-miterlimit:4;stroke-dasharray:none;stroke-dashoffset:0;stroke-opacity:1" />
      <path
         sodipodi:nodetypes="cscsc"
         inkscape:connector-curvature="0"
         id="rect4158"
         d="m 165.17948,339.20815 c 0,0 21.23994,-75.83998 108.68452,-102.53049 94.38129,-28.80778 193.4696,11.2922 193.4696,11.2922 0,0 -102.89344,-0.63256 -184.47135,24.56056 -64.71523,19.98554 -117.68277,66.67773 -117.68277,66.67773 z"
         style="opacity:1;fill:#9df3f3;fill-opacity:1;fill-rule:nonzero;stroke:none;stroke-width:20;stroke-linecap:round;stroke-linejoin:miter;stroke-miterlimit:4;stroke-dasharray:none;stroke-dashoffset:0;stroke-opacity:1" />
      <path
         sodipodi:nodetypes="cscsc"
         inkscape:connector-curvature="0"
         id="path4179"
         d="m 526.54271,443.43153 c 0,0 -53.16979,-19.48667 -185.947,-14.12993 -123.04959,4.9643 -167.27779,40.20459 -167.27779,40.20459 0,0 35.45806,72.97924 165.6259,72.54352 132.69992,-0.4442 187.59889,-98.61818 187.59889,-98.61818 z"
         style="opacity:1;fill:#16b2b2;fill-opacity:1;fill-rule:nonzero;stroke:none;stroke-width:20;stroke-linecap:round;stroke-linejoin:miter;stroke-miterlimit:4;stroke-dasharray:none;stroke-dashoffset:0;stroke-opacity:1" />
    </g>
    <path
       style="opacity:1;fill:#ffffff;fill-opacity:1;fill-rule:nonzero;stroke:#000000;stroke-width:24.67995453;stroke-linecap:butt;stroke-linejoin:miter;stroke-miterlimit:4;stroke-dasharray:none;stroke-dashoffset:0;stroke-opacity:1"
       d="m 567.80359,325.29478 c 8.74422,54.21267 -15.72157,92.74777 -75.59771,92.74777 -59.87615,0 -130.29376,-37.83442 -130.29376,-92.74777 0,-54.91335 23.926,-99.42942 83.80213,-99.42942 66.30471,0 111.27352,32.37321 122.08934,99.42942 z"
       id="path4139"
       inkscape:connector-curvature="0"
       sodipodi:nodetypes="sssss"
       inkscape:export-xdpi="18.709055"
       inkscape:export-ydpi="18.709055"
       inkscape:export-filename="E:\My Documents\GitHub\ArenaNet_MobileSoftwareEngineerTest_Q1\ArenaNet_MobileSoftwareEngineerTest_Q1\Assets\Sprites\player_bird.png" />
    <ellipse
       style="opacity:1;fill:#000000;fill-opacity:1;fill-rule:nonzero;stroke:none;stroke-width:20;stroke-linecap:butt;stroke-linejoin:miter;stroke-miterlimit:4;stroke-dasharray:none;stroke-dashoffset:0;stroke-opacity:1"
       id="path4142"
       cx="515.85791"
       cy="325.91333"
       rx="21.183466"
       ry="29.127268"
       inkscape:export-xdpi="18.709055"
       inkscape:export-ydpi="18.709055"
       inkscape:export-filename="E:\My Documents\GitHub\ArenaNet_MobileSoftwareEngineerTest_Q1\ArenaNet_MobileSoftwareEngineerTest_Q1\Assets\Sprites\player_bird.png" />
    <g
       id="g4153"
       transform="matrix(0.94721123,0,0,1.0041629,28.301333,-94.597027)"
       inkscape:export-xdpi="18.709055"
       inkscape:export-ydpi="18.709055"
       inkscape:export-filename="E:\My Documents\GitHub\ArenaNet_MobileSoftwareEngineerTest_Q1\ArenaNet_MobileSoftwareEngineerTest_Q1\Assets\Sprites\player_bird.png">
      <path
         inkscape:connector-curvature="0"
         id="path4144"
         d="M 487,495.21875 A 125,34.999996 0 0 0 368.47852,519.18945 29.285715,40.808372 0 0 0 352,555.85352 29.285715,40.808372 0 0 0 374.86133,595.63477 125,34.999996 0 0 0 487,615.21875 a 125,34.999996 0 0 0 125,-35 A 125,34.999996 0 0 0 574.38281,555.23828 125,34.999996 0 0 0 612,530.21875 a 125,34.999996 0 0 0 -125,-35 z"
         style="opacity:1;fill:#e36c1c;fill-opacity:1;fill-rule:nonzero;stroke:#000000;stroke-width:20;stroke-linecap:butt;stroke-linejoin:miter;stroke-miterlimit:4;stroke-dasharray:none;stroke-dashoffset:0;stroke-opacity:1" />
    </g>
    <path
       style="fill:none;fill-rule:evenodd;stroke:#000000;stroke-width:18.98970604;stroke-linecap:round;stroke-linejoin:miter;stroke-miterlimit:4;stroke-dasharray:none;stroke-opacity:1"
       d="m 568.07062,462.73958 -146.29766,1.01866"
       id="path4151"
       inkscape:connector-curvature="0"
       inkscape:export-xdpi="18.709055"
       inkscape:export-ydpi="18.709055"
       inkscape:export-filename="E:\My Documents\GitHub\ArenaNet_MobileSoftwareEngineerTest_Q1\ArenaNet_MobileSoftwareEngineerTest_Q1\Assets\Sprites\player_bird.png" />
    <g
       id="g4188"
       transform="translate(-4.0406098,-119.198)"
       inkscape:export-xdpi="18.709055"
       inkscape:export-ydpi="18.709055"
       inkscape:export-filename="E:\My Documents\GitHub\ArenaNet_MobileSoftwareEngineerTest_Q1\ArenaNet_MobileSoftwareEngineerTest_Q1\Assets\Sprites\player_bird.png">
      <path
         style="opacity:1;fill:#44e8e8;fill-opacity:1;fill-rule:nonzero;stroke:#000000;stroke-width:20;stroke-linecap:butt;stroke-linejoin:miter;stroke-miterlimit:4;stroke-dasharray:none;stroke-dashoffset:0;stroke-opacity:1"
         d="m 456.39429,827.09091 c 0,-49.84172 -53.92793,-104.28473 -120.45141,-104.28473 -66.52348,0 -106.25594,32.84559 -106.25594,82.6873 0,49.8417 39.73246,97.80549 106.25594,97.80549 66.52347,0 120.45141,-26.36635 120.45141,-76.20806 z"
         id="path4156"
         inkscape:connector-curvature="0"
         sodipodi:nodetypes="sssss" />
      <path
         style="opacity:1;fill:#9df3f3;fill-opacity:1;fill-rule:nonzero;stroke:none;stroke-width:20;stroke-linecap:round;stroke-linejoin:miter;stroke-miterlimit:4;stroke-dasharray:none;stroke-dashoffset:0;stroke-opacity:1"
         d="m 244.61162,778.11943 c 0,0 11.02442,-49.12953 92.15846,-45.91564 73.25967,2.90198 97.83824,55.56173 97.83824,55.56173 0,0 -22.16723,61.66298 -81.34152,62.90066 -65.14909,1.36265 -108.65518,-72.54675 -108.65518,-72.54675 z"
         id="path4161"
         inkscape:connector-curvature="0"
         sodipodi:nodetypes="cscsc" />
    </g>
  </g>
</svg>
